<?xml version="1.0" standalone="no"?>
<!DOCTYPE svg PUBLIC "-//W3C//DTD SVG 20010904//EN"
 "http://www.w3.org/TR/2001/REC-SVG-20010904/DTD/svg10.dtd">
<svg version="1.0" xmlns="http://www.w3.org/2000/svg"
 width="340.000000pt" height="340.000000pt" viewBox="0 0 340.000000 340.000000"
 preserveAspectRatio="xMidYMid meet">
<metadata>
Created by potrace 1.14, written by Peter Selinger 2001-2017
</metadata>
<g transform="translate(0.000000,340.000000) scale(0.100000,-0.100000)"
fill="#000000" stroke="none">
<path d="M1527 3364 c-4 -4 -20 -9 -35 -11 -53 -5 -97 -11 -97 -13 0 -1 -11
-3 -25 -6 -46 -7 -125 -27 -135 -32 -5 -3 -21 -7 -34 -8 -14 -2 -27 -8 -29
-14 -2 -5 -8 -8 -12 -5 -5 3 -17 1 -27 -4 -19 -10 -54 -24 -65 -25 -3 -1 -10
-4 -14 -8 -4 -5 -15 -8 -25 -8 -9 0 -19 -3 -21 -7 -1 -5 -42 -28 -90 -53 -49
-24 -88 -48 -88 -52 0 -4 -5 -8 -11 -8 -6 0 -25 -11 -41 -25 -16 -14 -33 -23
-38 -20 -5 3 -12 -4 -15 -16 -4 -11 -9 -18 -12 -16 -5 6 -33 -15 -74 -57 -16
-16 -29 -26 -29 -23 0 6 -96 -90 -146 -145 -16 -18 -28 -36 -27 -40 2 -4 -6
-10 -17 -13 -11 -4 -20 -11 -20 -16 0 -6 -12 -26 -26 -45 -15 -19 -24 -34 -21
-34 3 0 -5 -12 -19 -27 -13 -14 -27 -37 -30 -50 -4 -13 -9 -23 -13 -23 -9 0
-35 -51 -33 -62 1 -5 -3 -8 -9 -8 -5 0 -7 -4 -4 -10 3 -5 1 -10 -4 -10 -6 0
-11 -9 -11 -19 0 -11 -5 -21 -11 -23 -5 -2 -11 -10 -13 -18 -1 -8 -10 -29 -19
-46 -9 -17 -13 -34 -10 -38 4 -3 1 -6 -5 -6 -7 0 -11 -3 -10 -7 1 -5 -4 -21
-10 -36 -7 -16 -12 -35 -12 -43 0 -8 -4 -14 -9 -14 -5 0 -8 -8 -7 -17 2 -9 -3
-28 -10 -41 -7 -14 -10 -30 -8 -37 3 -7 1 -16 -5 -19 -6 -4 -8 -13 -4 -21 3
-8 1 -15 -4 -15 -5 0 -8 -14 -7 -30 1 -17 -1 -32 -6 -35 -7 -4 -12 -58 -13
-127 0 -16 -3 -28 -6 -28 -5 0 -5 -143 0 -160 4 -17 3 -58 -3 -77 -4 -13 -4
-23 0 -23 4 0 8 -12 8 -27 1 -59 8 -128 13 -138 5 -9 9 -36 14 -92 1 -13 5
-23 10 -23 4 0 7 -13 7 -30 0 -16 5 -30 11 -30 5 0 8 -4 4 -9 -5 -10 18 -92
35 -123 6 -10 10 -25 10 -33 0 -8 4 -15 8 -15 4 0 8 -10 9 -22 1 -11 6 -24 11
-27 5 -3 15 -23 21 -44 8 -23 17 -35 24 -30 7 3 9 3 5 -2 -10 -11 64 -142 89
-158 7 -4 13 -13 13 -18 0 -17 46 -79 53 -72 4 3 7 0 7 -8 0 -40 328 -359 370
-359 5 0 10 -4 10 -8 0 -10 50 -37 63 -34 4 1 7 -3 7 -9 0 -5 14 -15 30 -20
17 -6 30 -15 30 -20 0 -5 7 -9 16 -9 9 0 28 -8 42 -18 23 -15 83 -43 157 -73
39 -15 100 -33 108 -31 4 1 7 -1 7 -6 0 -6 23 -11 78 -15 12 -1 22 -6 22 -11
0 -5 3 -7 6 -4 3 4 20 2 37 -3 33 -9 111 -19 187 -23 25 -1 50 -5 56 -8 5 -4
16 -3 24 2 9 5 19 5 27 -2 9 -7 13 -7 13 1 0 8 5 9 17 2 10 -5 26 -5 40 0 14
5 25 4 29 -2 3 -6 10 -6 17 -1 7 5 35 10 62 12 63 3 108 8 115 11 3 1 10 3 15
4 6 2 12 4 15 5 3 1 16 3 30 5 58 7 95 17 98 26 2 5 7 7 12 4 12 -7 122 32
219 77 47 23 89 40 94 40 4 -1 7 1 7 6 0 4 13 13 28 20 16 6 37 20 48 30 11 9
26 18 33 20 8 2 24 11 36 20 13 9 33 24 45 32 12 8 28 20 34 26 6 6 22 16 34
23 12 7 20 17 16 23 -4 7 -3 8 4 4 7 -4 12 -2 12 3 0 6 4 11 10 11 15 0 193
185 230 240 8 12 23 31 33 42 9 12 17 27 17 33 0 7 7 15 15 19 8 3 15 12 15
21 0 8 5 15 10 15 6 0 10 7 10 15 0 8 5 15 10 15 6 0 9 3 8 8 -2 10 24 62 32
62 4 0 13 18 20 40 7 22 18 40 23 40 6 0 7 3 4 6 -4 4 0 19 7 33 22 41 51 111
61 151 1 3 5 12 8 20 12 30 37 126 41 160 3 19 5 35 6 35 2 0 7 25 14 72 3 21
8 48 10 61 3 12 0 22 -6 22 -7 0 -7 4 0 13 8 10 10 342 2 342 -2 0 -6 23 -15
99 -3 27 -10 55 -15 61 -5 7 -7 14 -5 17 3 3 1 16 -4 30 -5 14 -12 38 -15 54
-3 16 -12 49 -21 74 -15 45 -20 57 -46 115 -7 17 -13 32 -14 35 -4 17 -59 116
-66 118 -5 2 -7 8 -3 13 3 5 0 9 -6 9 -6 0 -9 4 -6 8 3 5 -4 18 -14 30 -11 12
-20 26 -20 32 0 5 -3 10 -7 10 -5 1 -24 25 -43 55 -19 30 -38 55 -42 55 -5 0
-8 5 -8 10 0 11 -25 41 -97 119 -24 25 -43 49 -43 54 0 4 -4 5 -10 2 -5 -3
-10 1 -10 10 0 9 -4 14 -8 11 -5 -3 -16 6 -26 20 -11 13 -25 24 -33 24 -8 0
-11 5 -8 10 3 6 0 10 -7 10 -8 0 -20 9 -28 20 -8 11 -18 20 -22 20 -4 0 -16 8
-26 18 -10 9 -29 24 -41 32 -13 8 -37 25 -53 37 -17 12 -34 20 -38 18 -5 -3
-11 2 -14 11 -3 8 -10 13 -15 10 -5 -4 -11 -3 -13 2 -11 27 -312 146 -388 154
-19 1 -37 5 -40 9 -11 12 -101 26 -107 16 -4 -6 -10 -5 -17 4 -6 8 -29 15 -51
16 -22 1 -57 3 -77 5 -23 3 -38 0 -38 -6 0 -7 -3 -7 -8 0 -8 13 -199 14 -219
1 -6 -4 -13 -2 -15 4 -2 5 -7 7 -11 3z"/>
</g>
</svg>
